# xmcd
#
# Track frame offsets:
#	150
#	16932
#	33291
#	52243
#	77602
#	106149
#	135328
#	164012
#	183525
#	201810
#
# Disc length: 3108 seconds
#
# Revision: 0
# Processed by: cddbd v1.5.2PL0 Copyright (c) Steve Scherf et al.
# Submitted via: audiograbber 1.83.01
#
DISCID=7e0c220a
DTITLE=Notting Hillbillies - Live in Glasgow 90
DYEAR=1990
DGENRE=Country blues
TTITLE0=Down the road Apiece
TTITLE1=Let's have some fun Tonight
TTITLE2=One Way Gal
TTITLE3=When it comes to You
TTITLE4=Running on Down this Road
TTITLE5=Your own sweet Way
TTITLE6=Water of Love
TTITLE7=Hobo's Lullaby
TTITLE8=That's alright Mama
TTITLE9=Railroad Worksong
EXTD=
EXTT0=
EXTT1=
EXTT2=
EXTT3=
EXTT4=
EXTT5=
EXTT6=
EXTT7=
EXTT8=
EXTT9=
PLAYORDER=
